<?xml version="1.0" encoding="UTF-8" standalone="no"?>
<svg
   version="1.1"
   viewBox="0 0 1024 1024"
   width="1024.0pt"
   height="1024.0pt"
   id="svg36"
   sodipodi:docname="Logo_Full.svg"
   inkscape:version="1.4.2 (f4327f4, 2025-05-13)"
   xmlns:inkscape="http://www.inkscape.org/namespaces/inkscape"
   xmlns:sodipodi="http://sodipodi.sourceforge.net/DTD/sodipodi-0.dtd"
   xmlns="http://www.w3.org/2000/svg"
   xmlns:svg="http://www.w3.org/2000/svg">
  <defs
     id="defs36" />
  <sodipodi:namedview
     id="namedview36"
     pagecolor="#505050"
     bordercolor="#ffffff"
     borderopacity="1"
     inkscape:showpageshadow="0"
     inkscape:pageopacity="0"
     inkscape:pagecheckerboard="1"
     inkscape:deskcolor="#505050"
     inkscape:document-units="pt"
     showgrid="false"
     inkscape:zoom="54.703125"
     inkscape:cx="666.0954"
     inkscape:cy="431.75778"
     inkscape:window-width="3440"
     inkscape:window-height="1369"
     inkscape:window-x="2552"
     inkscape:window-y="-8"
     inkscape:window-maximized="1"
     inkscape:current-layer="svg36" />
  <path
     d="m 463.54484,90.59 c 2.96,1.7 5.46,3.82 7.96,6.13 0.92,1.08 2.92,0.33 4.18,0.28 0.9,-0.6 1.8,-1.2 2.71,-1.8 1.35,-0.64 2.69,-1.3 4.03,-1.97 5.57,-2.64 11.38,-4.49 17.61,-4.54 7.83,-0.25 15.44,0.19 22.66,3.5 0.66,0.36 1.33,0.71 2,1.06 1.34,0.66 2.69,1.31 4.04,1.94 3.14,2.13 6.47,4.29 9.07,7.07 2.47,2.88 4.58,6.09 6.59,9.3 0.48,0.93 0.97,1.86 1.46,2.8 3.03,6 4,12.33 5.27,18.84 4.22,0.68 8.43,0.74 12.55,1.97 1.67,0.69 3.34,1.37 5.01,2.05 10.1,4.59 18.15,12.79 22.16,23.16 1.95,5.77 3,11.28 2.75,17.39 3.29,-1.22 6.61,-2.26 10.01,-3.1 6.73,-1.7 13.55,-2.88 20.45,-3.59 7.6,-0.35 14.59,-1.55 22.19,-0.35 14.08,0.41 28.15,3.85 41.39,8.53 1.68,0.66 3.37,1.31 5.05,1.97 12.25,4.99 23.67,11.83 33.99,20.09 6.42,5.76 13,10.79 18.31,17.73 6.54,7.12 11.79,15.08 16.81,23.31 2.79,4.97 5.43,9.86 7.56,15.15 0.76,1.64 1.42,3.32 2.07,5 6.46,16.39 9.78,33.92 10.34,51.5 0.42,5.4 -0.77,10.6 -0.74,16 -1.09,10.68 -3.14,21.31 -6.64,31.48 -1.58,4.82 -3.46,9.52 -5.57,14.14 -0.35,0.67 -0.7,1.34 -1.04,2.01 -1.97,4.02 -4.04,7.97 -6.39,11.79 -10.59,17.16 -24.47,32.18 -40.9,43.89 -2.75,1.77 -5.13,3.69 -7.47,5.97 2.17,1.9 4.33,1.69 7.04,1.63 11.63,-0.74 23.34,-0.19 35,-0.47 3.49,0.1 6.71,-0.42 9.09,2.66 0.2,4.24 0.19,8.55 -0.25,12.77 -0.49,1.13 -1.31,2.16 -2.01,3.17 -35.27,-0.12 -70.56,-0.02 -105.83,-0.05 -9.86,0.29 -20.34,1.38 -30.18,0.26 -14.8,-0.69 -29.55,-4.32 -43.24,-9.94 -4.89,-2.03 -9.47,-4.29 -14,-7.02 -2.48,-1.3 -4.89,-2.7 -7.4,-3.94 -1.5,5.33 -1.74,10.92 -3.35,16.25 -0.72,1.67 -1.34,3.39 -2.03,5.07 -1.81,3.44 -3.94,6.68 -6.55,9.57 -2.61,2.77 -6.27,4.77 -9.59,6.57 -4.17,1.59 -8.13,3.06 -12.66,3.23 -9.27,0.86 -18.66,0.38 -28,0.5 -15.28,-0.1 -30.63,0.13 -45.9,-0.44 -7.57,0.39 -15.12,-0.05 -22.7,0.34 5.75,6.52 12.14,12.74 18.79,18.35 5.37,4.97 10.28,10.43 15.72,15.31 4.59,3.73 8.72,7.92 12.87,12.12 4.41,4.71 7.3,11.33 5.29,17.79 -1.29,6.17 -5.86,10.36 -11.44,12.86 -3.58,1.06 -7.05,1.72 -10.71,0.54 -6.44,-1.49 -10.42,-6.04 -14.56,-10.82 -4.02,-5.34 -9.27,-9.36 -13.42,-14.58 -3.68,-4.64 -8.27,-8.38 -12.01,-12.97 -4.89,-5.76 -10.6,-10.73 -15.36,-16.58 -4.57,-5.42 -10.23,-9.96 -14.52,-15.5 -2.34,-2.9 -4.97,-5.3 -7.61,-8 -2.46,2.7 -5.18,5.15 -7.58,7.9 -4.3,5.69 -9.83,10.13 -14.15,15.83 -6.13,5.94 -11.36,12.6 -17.39,18.64 -3.02,3.96 -6.59,7.39 -9.67,11.3 -3.22,3.86 -7.04,6.92 -10.22,10.79 -3.81,4.67 -7.6,9.04 -12.95,11.99 -3,1.33 -6.2,2.31 -9.48,2.58 -2.9,0.17 -5.99,-1.23 -8.74,-2.09 -3.49,-2.23 -6.73,-5.01 -8.23,-8.98 -1.97,-4.75 -1.67,-9.88 0.05,-14.64 3.38,-5.64 9,-9.7 13.75,-14.47 5.47,-4.19 9.81,-9.51 15.24,-13.73 3.29,-2.74 6.01,-6.04 9.43,-8.64 4.48,-3.52 7.99,-7.97 12.5,-11.46 3.95,-3.05 7.01,-6.97 10.96,-10.03 4.95,-3.78 8.61,-8.71 13.56,-12.49 1.63,-1.26 3.06,-2.71 4.42,-4.26 -5.66,-6.02 -11.19,-12.3 -17.36,-17.79 -5.45,-5.39 -10.78,-10.92 -16.05,-16.49 -4.5,-0.46 -9,0.26 -13.53,0.11 -5.9,0.23 -11.88,-0.84 -17.48,-2.67 -1.39,-0.51 -2.78,-1.03 -4.16,-1.55 -7.89,-3.36 -14.56,-8.59 -20.61,-14.57 -5.74,-6.6 -11.24,-13.42 -16.63,-20.3 -13.63,-16.4 -27.15,-32.97 -40.82,-49.33 -1,-1.45 -1.66,-3.18 -2.41,-4.76 0.97,-1.77 2.04,-3.34 3.33,-4.9 1.13,0.02 2.26,0.03 3.39,0.04 6.34,4.22 10.83,10.82 16.96,15.43 6.43,5.53 12.05,11.99 18.3,17.72 9.06,7.78 17.36,16.47 25.71,24.99 2.2,-0.21 3.68,-1.06 5.43,-2.33 -0.01,-1.45 -0.02,-2.91 -0.03,-4.36 -3.29,-3.18 -6.65,-6.38 -9.57,-9.91 -4.61,-5.72 -10.28,-10.36 -14.96,-16.04 -4.67,-5.66 -10.32,-10.31 -14.98,-15.96 -5.01,-6.33 -11.83,-11.43 -16.56,-17.95 -0.06,-3.08 0.22,-4.95 2.76,-6.88 1.93,-1.93 4.49,0.28 6.12,1.51 5.84,4.47 10.56,10.1 16.37,14.59 2.96,2.49 5.27,5.41 8.31,7.74 4.02,2.94 7.1,6.86 11.14,9.8 4.48,4.25 9.38,7.97 13.74,12.35 3.51,3.03 7.1,5.88 10.15,9.39 2.76,0.05 3.59,-0.52 5.53,-2.34 -0.01,-1.18 -0.02,-2.35 -0.03,-3.52 -9.48,-8.91 -18.62,-18.24 -27.36,-27.88 -9.27,-9.39 -18.55,-18.77 -27.94,-28.05 -1.52,-1.67 -3.14,-2.78 -2.77,-5.31 -0.19,-2.83 1.78,-4.26 3.4,-6.22 5.41,0.06 8.17,4.88 12.26,7.7 20.95,18.17 42.34,36.35 63.45,54.38 -2.16,-15.69 -5.74,-31.19 -8.34,-46.81 -3.12,-15.9 -5.38,-31.99 -8.88,-47.8 -11.66,-3.05 -20.29,-14.17 -22.35,-25.75 -1.53,-7.83 0.05,-15.93 4.29,-22.67 2.57,-4.33 6.59,-7.68 10.21,-11.27 0.04,-3.18 -0.05,-6.37 -0.02,-9.55 -0.16,-4.09 1.33,-8.34 2.8,-12.12 4.11,-10.1 12.53,-17.72 22.6,-21.69 2.88,-1.05 5.84,-2.14 8.83,-2.81 2.83,-0.6 5.64,-0.24 8.41,-0.55 3.13,-3.01 4.78,-7.21 8.11,-10.13 3.78,-4.18 7.64,-6.96 12.65,-9.51 3.09,-1.21 6.38,-2.46 9.66,-3.06 3.2,-0.32 6.47,-0.1 9.69,-0.18 2.28,-20.01 17.52,-35.66 35.78,-42.68 13.93,-5.13 29.3,-3.05 42.01,4.32 z"
     fill="#241a10"
     id="path2"
     style="display:inline" />
  <path
     d="m 453.56,104.43 c 7.89,3.72 13.76,10.63 15.91,19.11 0.51,1.32 0.91,4.23 2.58,4.5 2.35,-0.66 4.49,-1.84 6.91,-2.33 0.85,-3.98 1.3,-7.65 3.71,-11.08 3.95,-6.29 11.23,-8.92 18.32,-9.6 8.63,-0.25 17.2,2.42 23.48,8.5 5.71,5.22 9.13,12.68 8.63,20.48 0.01,5.37 -3.3,10.77 -2.87,16.01 0.45,2.97 2.3,3.78 4.68,5.08 2.95,-1.36 5.91,-3.33 9.09,-3.84 6.85,-0.91 13.82,-0.69 20.04,2.63 5.29,2.85 9.92,7.99 11.36,13.91 1.39,5.86 1,11.94 -2.65,16.94 -2.42,1.84 -5.02,3.31 -7.17,5.52 -9.85,1.18 -19.32,1.14 -26.83,8.63 1.37,1.89 2.73,3.78 4.08,5.67 4.22,-2.02 8.4,-3.71 13.17,-3.67 4.67,-0.39 9.41,0.93 14,0.41 2.91,-1.46 2.11,-3.62 1.43,-6.19 2.53,-0.32 5.03,-0.9 7.57,-1.1 3.08,-0.14 6.27,0.84 9.14,1.87 6.08,2.11 10.59,7.98 11.98,14.14 2.01,7.18 -0.54,15.44 -4.71,21.4 -2.42,3.76 -6.36,6.21 -10.61,7.36 -6.06,1.01 -11.81,0.05 -17.28,-2.66 -4.53,3.85 -9.85,4.78 -15.53,5.72 -4.41,0.55 -8.83,-0.21 -12.94,-1.84 -2.78,-1.1 -5.01,-3.56 -7.4,-5.39 0.6,-6.38 1.25,-13.63 -1.71,-19.52 -0.9,-1.78 -1.86,-4.4 -4.07,-4.79 -1.77,-0.29 -4.97,-0.13 -5.3,2.17 -0.62,3.98 -0.19,8.07 -1.1,12.07 -1.97,7.69 -6.19,14.63 -13.12,18.77 -2.97,1.9 -6.54,2.02 -9.57,3.49 -0.93,0.92 -1.72,2.01 -2.53,3.05 -6.81,-1.54 -13.23,-3.95 -18.63,-8.5 -6.66,-5.16 -10.01,-12.13 -13.85,-19.39 -2.07,0.48 -3.51,0.76 -5.59,0.11 -3.61,7.11 -8.86,15.18 -16,19.13 -7.81,4.37 -17.14,3.62 -24.9,-0.43 -3.94,-2.11 -6.7,-5.89 -9.85,-9.05 -2.94,3.62 -5.6,7.53 -8.77,10.94 -5.11,4.76 -11.46,8.52 -18.66,8.3 -4.97,-0.58 -9.93,-2.45 -14.05,-5.3 -1.37,-2.3 -2.56,-3.54 -4.94,-4.77 0.32,0.62 0.65,1.23 0.99,1.84 -4.26,-3.57 -7.96,-7.87 -11.44,-12.19 -5.45,4.4 -10.52,8.64 -17.35,10.77 -6.25,2.02 -13.84,1.58 -19.37,-2.13 -4.91,-3.36 -6.7,-9.52 -6.39,-15.19 0.42,-5.61 5.12,-10.32 10.03,-12.5 3.32,-1.41 6.65,-2.7 9.76,-4.57 -1.71,-3.59 -3.51,-6.97 -4.32,-10.91 -1.5,-5.35 -0.41,-11.69 2.91,-16.16 8.44,-11.25 26.45,-13.65 37.73,-5.43 1.46,0.83 2.58,1.82 4.38,1.56 1.62,-0.47 2.96,-2.05 4.21,-3.13 -0.19,-2.14 0.19,-4.08 -1.07,-5.9 -2.14,-3.03 -5.04,-5.57 -7.59,-8.26 1.41,-1.99 2.75,-3.92 4.54,-5.61 4.79,-4.86 12.33,-6.94 18.97,-7.12 5.57,-0.32 10.01,2.06 14.62,4.82 1.49,-1.07 3,-2.12 4.51,-3.16 -1.55,-7.31 -1.92,-14.73 -0.73,-22.12 3.76,-12.28 14.34,-23 27.42,-24.67 7.52,-1 15.94,0.16 22.74,3.6 z"
     fill="#f4e2b9"
     id="path3"
     style="display:inline" />
  <path
     d="m 457.29,150.73 c 5.46,2.81 8.47,7.35 11.79,12.27 3.62,-0.97 7.15,-1.77 10.93,-1.28 9.42,0.63 17.37,7.84 21.14,16.15 2.33,5.63 2.64,13.28 -0.72,18.56 -2.6,3.66 -6.93,7.46 -11.76,5.83 1,-2.3 2.33,-4.76 2.7,-7.24 0.57,-6.58 -4.31,-12.8 -10.15,-15.26 -4.76,-1.95 -9.15,-0.42 -13.95,-0.97 -1.57,-2.74 -2.38,-6.17 -4.52,-8.52 -2.47,-2.65 -5.78,-4.62 -9.23,-5.69 -4.42,-1.26 -9.62,0.24 -13.5,2.48 -5.78,3.58 -7.63,9.92 -13.21,13.91 -2.64,-1.1 -5.1,-1.5 -6.4,-4.37 -0.94,-2.66 -0.44,-5.92 0.8,-8.42 3.95,-7.75 10.34,-14.12 18.34,-17.62 5.51,-2.42 12.29,-2.41 17.74,0.17 z"
     fill="#ddb960"
     id="path4"
     style="display:inline" />
  <path
     d="m 391.02,185.03 c 5.94,0.71 11.59,4 15.19,8.77 2.08,2.82 1.55,7.05 -1.27,9.16 -6.15,-0.93 -11.36,-2.47 -17.23,0.79 -5.08,2.72 -6.93,7.29 -8.84,12.39 -1.46,-0.14 -3.11,0 -4.48,-0.54 -3.26,-2.51 -4.03,-6.71 -3.92,-10.6 0.2,-5.47 3.02,-9.99 6.69,-13.85 3.46,-3.73 8.75,-6.23 13.86,-6.12 z"
     fill="#ddb960"
     id="path5"
     style="display:inline" />
  <path
     d="m 640.01,188.03 c 12.64,0.8 25.09,2.55 37.08,6.8 18.78,6.7 36.48,17.26 49.87,32.19 22.88,23.64 35.24,56.26 35.92,88.97 -0.6,11.82 -1.81,23.46 -5.07,34.89 -9.23,31.5 -31.6,58.92 -60.53,74.4 -33.35,18.18 -74.98,20.6 -109.89,5.34 -6.69,-3.1 -13.08,-6.87 -19.35,-10.75 -1.36,-1.13 -3.78,-1.87 -3.22,-4.05 0.98,-6.39 2.24,-12.77 3.41,-19.14 4.97,6.18 9.95,11.69 17.55,14.67 13.78,4.9 30.03,-0.02 38.51,-12.01 4.54,-6.72 7.35,-15.21 6.62,-23.36 -0.84,-7.74 -3.64,-15.12 -9.12,-20.76 -6.69,-7.37 -16.91,-11.14 -26.78,-10.08 -7.14,0.87 -12.67,4.11 -18.98,7.18 1.5,-7.64 2.57,-15.36 3.94,-23.02 11.74,-4.97 19.65,-16.54 20.06,-29.29 0.18,-7.69 -2.43,-15.67 -7.38,-21.6 -0.74,-1.13 -2.28,-2.42 -1.99,-3.87 0.55,-5.86 1.9,-11.62 2.57,-17.47 0.03,-1.34 1.85,-2.24 2.8,-2.96 4.23,-2.55 7.91,-5.82 12.02,-8.52 1.15,3.85 2,7.99 3.76,11.57 4.9,10.1 15.22,17.32 26.32,18.73 14.52,1.53 29.36,-7.44 34.84,-20.96 5.2,-11.92 3.14,-26.51 -5.93,-35.97 -8.4,-8.8 -21.87,-12.4 -33.44,-8.34 -6.46,2.13 -11.36,6.2 -15.85,11.18 0.35,-6.34 0.91,-12.19 -1.27,-18.28 -1.36,-4.68 -4.16,-8.28 -6.85,-12.23 10.15,-1.71 20.01,-3.39 30.38,-3.26 z"
     fill="#cfb58d"
     id="path6"
     style="display:inline" />
  <path
     d="m 565.58,190.26 c 1.12,2.84 3.47,3.4 5.85,4.85 0.68,2.57 1.48,4.73 -1.43,6.19 -4.59,0.52 -9.33,-0.8 -14,-0.41 -4.77,-0.04 -8.95,1.65 -13.17,3.67 -1.35,-1.89 -2.71,-3.78 -4.08,-5.67 7.51,-7.49 16.98,-7.45 26.83,-8.63 z"
     fill="#ddb960"
     id="path7"
     style="display:inline" />
  <path
     d="m 525.87,210.3 c 2.21,0.39 3.17,3.01 4.07,4.79 2.96,5.89 2.31,13.14 1.71,19.52 -2.36,2.95 -5.04,5.68 -7.91,8.15 -7.96,6.75 -19.36,9.2 -29.49,7.09 0.81,-1.04 1.6,-2.13 2.53,-3.05 3.03,-1.47 6.6,-1.59 9.57,-3.49 6.93,-4.14 11.15,-11.08 13.12,-18.77 0.91,-4 0.48,-8.09 1.1,-12.07 0.33,-2.3 3.53,-2.46 5.3,-2.17 z"
     fill="#ddb960"
     id="path8"
     style="display:inline" />
  <path
     d="m 359.01,240.89 c 2.38,1.23 3.57,2.47 4.94,4.77 -1.36,-0.92 -2.69,-1.87 -3.95,-2.93 -0.34,-0.61 -0.67,-1.22 -0.99,-1.84 z"
     fill="#ffffff"
     id="path9"
     style="display:inline" />
  <path
     d="m 457.8,248.28 c 7.3,8.53 16.98,14.86 27.83,17.82 -2.1,25.12 -3.36,50.35 -5.72,75.44 -18,18.05 -35.01,37.03 -52.87,55.22 l 0.42,-0.79 c -0.74,-6.32 -0.24,-12.64 -0.7,-18.97 -0.33,-5.34 -0.84,-10.64 -0.76,-16 0.1,-7.02 -1.08,-13.96 -1,-21 0.13,-8.04 -1.2,-15.96 -1,-24 0.07,-7.38 -1.19,-14.63 -1,-22 0.09,-7.71 -1.08,-15.3 -1,-23 0.05,-3.26 -0.13,-6.43 -0.54,-9.66 9.04,1.72 18.88,-0.43 26.72,-5.15 3.74,-2.2 6.2,-5.21 9.62,-7.91 z"
     fill="#af3126"
     id="path10"
     style="display:inline" />
  <path
     d="m 345.91,253.95 c 2.78,2.37 5.18,4.9 8.33,6.84 6.03,3.69 12.62,5.58 19.52,6.9 -0.64,0 -1.28,0.01 -1.92,0.03 0.46,14.12 3.11,28.19 4.32,42.27 4.26,41.31 9.34,82.35 13.3,123.73 -1.33,0.87 -3.53,3.8 -5.03,1.91 -8.64,-8.07 -17.84,-15.55 -26.71,-23.38 -1.97,-1.6 -2.08,-4.89 -2.61,-7.23 -7.15,-44.11 -15.58,-88.03 -23.5,-132.01 -0.81,-4.23 -1.63,-8.42 -1.87,-12.73 6.17,-0.46 11.1,-3.03 16.17,-6.33 z"
     fill="#af3126"
     id="path11"
     style="display:inline" />
  <path
     d="m 569.99,253.57 c 2,0.44 3.97,1.02 5.94,1.6 -3.86,19.61 -7.02,39.36 -10.63,59.02 -2.54,13.24 -4.65,26.56 -7.17,39.8 -5.37,30.55 -11.16,61.01 -16.63,91.54 -1.05,6.31 -4.59,12.15 -10.98,14.09 -6.16,1.4 -12.8,1.01 -19.1,1.34 3.44,-27.3 6.78,-54.65 10.15,-81.96 0.44,-3.43 0.63,-6.89 0.79,-10.34 9.2,-10.62 17.22,-22.85 22.25,-36.01 2.26,-5.64 3.45,-11.58 2.98,-17.67 -0.41,-5.26 -4.86,-9.83 -9.25,-12.3 -3.03,-1.73 -6.05,-1.89 -9.37,-0.98 2.11,-14.55 3.68,-29.2 5.58,-43.78 4.22,1.73 8.91,2.74 13.46,2.93 8.11,0.1 15.32,-2.87 21.98,-7.28 z"
     fill="#af3126"
     id="path12"
     style="display:inline" />
  <path
     d="m 407.27,255.37 c 4.72,2.38 8.84,5.11 14.19,5.97 0.41,3.23 0.59,6.4 0.54,9.66 -0.08,7.7 1.09,15.29 1,23 -0.19,7.37 1.07,14.62 1,22 -0.2,8.04 1.13,15.96 1,24 -0.08,7.04 1.1,13.98 1,21 -0.08,5.36 0.43,10.66 0.76,16 0.46,6.33 -0.04,12.65 0.7,18.97 l -0.42,0.79 c -7.3,7.45 -14.38,15.17 -21.99,22.3 -5.46,4.63 -10.32,9.84 -15.59,14.66 -3.96,-41.38 -9.04,-82.42 -13.3,-123.73 -1.21,-14.08 -3.86,-28.15 -4.32,-42.27 0.64,-0.02 1.28,-0.03 1.92,-0.03 5.6,0.72 11.05,0.36 16.42,-1.39 6.78,-1.94 11.92,-6.36 17.09,-10.93 z"
     fill="#f4e2b9"
     id="path13"
     style="display:inline" />
  <path
     d="m 531.53,257.04 c 0.68,-0.02 1.35,-0.02 2.04,-0.01 l 0.98,0.89 c -1.9,14.58 -3.47,29.23 -5.58,43.78 -6.19,1.62 -10.92,5.18 -15.87,9.03 -1.92,-1.45 -4.74,0.52 -3.18,2.68 -1.77,1.57 -3.51,3.18 -5.36,4.66 -1.85,0.74 -3.54,1.4 -4.88,2.95 l -0.13,1.65 c -6.55,6.31 -13.3,12.34 -19.64,18.87 2.36,-25.09 3.62,-50.32 5.72,-75.44 l 0.89,0.28 c 4.72,1.8 9.47,2.1 14.45,2.58 11.18,0.42 22.51,-4.23 30.56,-11.92 z"
     fill="#f4e2b9"
     id="path14"
     style="display:inline" />
  <path
     d="m 705.24,262.33 c 9.83,-1.44 20.54,1.82 27.77,8.67 6.21,5.74 9.84,13.64 10.78,22 1.27,15.15 -8.36,29.86 -22.39,35.39 -5.93,2.19 -12.15,3.28 -18.39,1.7 -17.57,-2.83 -30.69,-21.03 -27.57,-38.57 2.41,-14.76 15.01,-27.06 29.8,-29.19 z"
     fill="#241a10"
     id="path15"
     style="display:inline" />
  <path
     d="m 633.25,298.29 c 3.02,-0.81 6.59,-0.87 9.63,-0.1 7.16,2.24 12.5,9.24 12.31,16.83 0.45,9.13 -8.01,17.78 -17.2,17.23 -7.71,0.15 -14.6,-5.66 -16.39,-13.07 -2.49,-8.84 3.12,-18.06 11.65,-20.89 z"
     fill="#241a10"
     id="path16"
     style="display:inline" />
  <path
     d="m 513.29195,310.61866 c -1.12926,0.95712 -2.25851,1.90372 -3.42003,2.81876 -1.67776,-2.27183 1.3551,-4.34383 3.42003,-2.81876 z"
     fill="#ffffff"
     id="path17"
     style="display:inline;fill:#f4e2b9;fill-opacity:1;stroke-width:1.06356" />
  <path
     d="m 504.80679,317.83693 c -1.76597,1.62576 -3.53194,3.26215 -5.29793,4.88791 l 0.13748,-1.75326 c 1.41701,-1.64702 3.20413,-2.34834 5.16045,-3.13465 z"
     fill="#ffffff"
     id="path18"
     style="fill:#f4e2b9;fill-opacity:1;stroke-width:1.06003" />
  <path
     d="m 673.46,343.49 c 9.34,-2.46 19.42,-0.78 27.39,4.68 12.73,8.5 17.76,25.69 12.22,39.89 -4.74,14.14 -19.22,23.84 -34.1,22.93 -18.76,-0.68 -34.28,-19.47 -31.28,-38.02 1.87,-13.97 12.04,-25.94 25.77,-29.48 z"
     fill="#241a10"
     id="path19"
     style="display:inline" />
  <path
     d="m 522.36,368.66 c -0.16,3.45 -0.35,6.91 -0.79,10.34 -3.37,27.31 -6.71,54.66 -10.15,81.96 -12.65,0.04 -25.31,0.12 -37.96,-0.05 0.86,-14.56 2.17,-29.07 3.42,-43.61 5.13,-6.26 11.17,-11.81 16.69,-17.72 9.64,-10.22 20.06,-19.98 28.79,-30.92 z"
     fill="#f4e2b9"
     id="path20"
     style="display:inline" />
  <path
     d="m 476.88,417.3 c -1.25,14.54 -2.56,29.05 -3.42,43.61 -10.47,-0.55 -20.98,-0.13 -31.46,-0.44 -10.24,-0.36 -20.74,0.92 -30.89,-0.18 6.15,0.41 12.64,0.83 18.73,-0.17 0.52,-8.19 -0.83,-16.47 -0.84,-24.7 -1.3,0.04 -2.6,0.1 -3.9,0.17 3.82,-0.67 8.02,0.22 11.91,0.31 4.93,0.11 9.91,0.23 14.83,-0.05 3.99,-0.33 7.26,-2.24 10.3,-4.71 5.18,-4.26 10.35,-8.76 14.74,-13.84 z"
     fill="#af3126"
     id="path21"
     style="display:inline" />
  <path
     d="m 425.1,435.59 c 1.3,-0.07 2.6,-0.13 3.9,-0.17 0.01,8.23 1.36,16.51 0.84,24.7 -6.09,1 -12.58,0.58 -18.73,0.17 -2.12,-1.37 -4.05,-3.26 -5.48,-5.34 6.22,-6.67 12.69,-13.26 19.47,-19.36 z"
     fill="#f4e2b9"
     id="path22"
     style="display:inline" />
  <path
     d="m 699.08,510.25 c 7.62,-0.28 15.3,0.26 22.93,0.08 2.09,-0.15 3.91,0.27 5.87,0.92 0.07,1.46 0.13,2.92 0.17,4.38 -7.68,9.96 -13.99,20.98 -21.19,31.3 -0.86,1.21 -1.97,2.14 -3.08,3.11 -7.27,-0.12 -14.55,0.04 -21.82,-0.04 -2.05,0.21 -2.68,-1.47 -4.04,-2.67 0.46,-0.97 0.91,-1.95 1.35,-2.93 1.66,-3.37 3.43,-6.64 5.44,-9.82 0.33,-0.67 0.67,-1.33 1,-1.99 2.02,-4 4.01,-8.02 6.01,-12.03 1.52,-3.42 3.34,-9.2 7.36,-10.31 z"
     fill="#241a10"
     id="path23"
     style="display:inline" />
  <path
     d="m 364,565.98 c 7.2,-0.31 14.67,1.49 21.5,3.64 1.67,0.63 3.31,1.31 4.93,2.06 1.06,0.52 2.13,1.04 3.2,1.55 10.2,5.25 18.82,14.21 23.59,24.65 2.32,5.9 4.67,11.22 3.66,17.71 -0.58,1.94 -3.36,1.29 -4.88,1.45 -7.67,-0.19 -15.34,0.18 -23.01,0.02 -1.13,-3.2 -2.01,-6.47 -3.17,-9.66 -2.83,-4.61 -5.74,-7.88 -10.38,-10.73 -1.62,-0.83 -3.27,-1.6 -4.88,-2.46 -8.24,-3.23 -17.86,-3 -26.15,-0.02 -4.47,2.1 -8.62,4.65 -12.16,8.13 -4.44,4.74 -7.32,10.3 -10.01,16.15 -1.83,5.93 -3.35,12.3 -3.3,18.53 0,4.34 -0.04,8.7 0.17,13.04 0.61,4.57 1.77,9.11 3.11,13.51 2.71,5.82 5.75,11.29 10.52,15.71 9.67,9.87 25.37,11.27 37.86,6.55 4.03,-1.93 7.66,-4.19 10.66,-7.55 3.75,-3.63 4.69,-8.19 7.88,-12.34 6.84,-0.99 13.94,-0.35 20.86,-0.55 2.11,0.1 5.79,-0.24 6.92,2 0.54,3.22 -0.21,6.14 -1.14,9.19 -0.97,2.37 -1.95,4.74 -2.99,7.08 -5.34,10.45 -13.56,18.98 -24.15,24.15 -2.03,0.89 -4.06,1.79 -6.14,2.57 -17.8,6.22 -37.44,6.19 -54.95,-1 -12.35,-5.5 -22.88,-15.43 -29.91,-26.91 -1.58,-2.89 -3,-5.86 -4.44,-8.82 -0.52,-1.38 -1.04,-2.75 -1.55,-4.13 -4.85,-13.54 -4.21,-27.43 -3.52,-41.52 0.96,-7.57 2.87,-14.69 6.09,-21.61 0.36,-0.66 0.71,-1.32 1.07,-1.98 0.31,-0.68 0.62,-1.36 0.93,-2.03 7.91,-13.34 17.57,-24.9 32.15,-31.16 9.95,-3.95 20.96,-5.59 31.63,-5.22 z"
     fill="#241a10"
     id="path24"
     style="display:inline" />
  <path
     d="m 448.99,567.91 c 7.09,-0.64 14.2,-0.02 21.15,0.06 1.76,1.5 3.62,2.52 4,5.02 0.95,4.51 0.31,9.41 0.43,14.01 0,38.66 -0.18,77.35 0.24,116.01 -0.01,2.27 -0.5,4.43 -0.91,6.65 -0.75,0.76 -1.49,1.52 -2.23,2.28 -5.58,1.46 -11.83,0.71 -17.67,0.91 -2.74,-0.08 -6.07,0.41 -8.3,-1.54 -2.26,-1.72 -2.12,-5.74 -2.26,-8.31 0.62,-38.71 0.64,-77.29 0.53,-116 -0.2,-5.03 -0.84,-10.59 0.32,-15.61 0.99,-1.57 2.66,-3.58 4.7,-3.48 z"
     fill="#241a10"
     id="path25"
     style="display:inline" />
  <path
     d="m 511.99,567.96 c 6.46,0.42 13.57,-0.91 19.76,1.06 1.65,1.15 3.27,2.15 4.33,3.93 7.29,11.29 14.92,22.36 22.26,33.62 9.13,13.58 17.97,27.35 27,40.99 2.81,4.07 4.82,8.15 8.46,11.56 -1.13,-28 -0.68,-56.11 -0.83,-84.14 -0.15,-2.2 0.64,-4.28 2.22,-5.81 1.38,-1.53 3.89,-1.46 5.8,-1.64 6.22,0.03 12.5,-0.17 18.68,0.49 3,1.61 4.39,3.45 4.34,6.96 -0.03,43.33 0,86.71 -0.01,130.04 -0.02,1.67 -0.58,3.12 -1.06,4.69 -0.76,0.74 -1.51,1.49 -2.25,2.26 -5.8,1.74 -12.69,0.65 -18.66,0.15 -2.94,-0.06 -6.73,-1.08 -8.62,-3.49 -15.95,-23.16 -31.25,-46.73 -46.76,-70.18 -3.07,-4.61 -6.19,-9.27 -8.99,-14.05 -0.93,-1.13 -1.87,-2.27 -2.81,-3.4 0.43,11.33 -0.2,22.71 0.46,34 0.16,16 0.24,32.01 0.27,48 -0.13,2.49 -0.23,5.7 -1.79,7.76 -2.86,2.69 -8.19,1.96 -11.79,2.06 -5.77,-0.32 -10.69,1.31 -15.78,-1.96 -1.85,-3.93 -1.12,-7.68 -1.23,-11.86 0.07,-41.67 0.23,-83.38 0,-125.05 -0.03,-3.79 3.29,-6.47 7,-5.99 z"
     fill="#241a10"
     id="path26"
     style="display:inline" />
  <path
     d="m 662,567.5 c 21.67,0.02 43.33,-0.02 65,0.01 3.65,0.16 7.37,0.07 11,0.53 2.09,0.63 2.94,2.96 3.14,4.94 0.63,5.93 0.88,12.14 -0.29,18.02 -0.41,1.13 -1.34,2.09 -2,3.09 -5.02,0.79 -9.78,0.41 -14.85,0.47 -7.67,0.04 -15.33,-0.07 -23,0.01 -5.06,-0.01 -10.02,0.26 -15.04,-0.61 -0.64,1.38 -1.04,2.47 -0.95,4.02 0.02,9 -0.08,18.01 0.05,27.01 0.04,1.87 1.45,1.69 2.86,1.67 13.02,-0.18 26.06,-0.05 39.08,-0.04 3.22,0.05 4.64,0.35 6.98,2.57 1.08,6.73 1.25,14.11 0.13,20.83 -0.12,2.32 -1.83,2.8 -3.44,4 -15.25,0.01 -30.42,-0.05 -45.66,-0.11 -0.02,10.39 -0.01,20.78 -0.01,31.17 6.27,0.74 12.69,0.15 19,0.28 10.68,0.12 21.35,-0.06 32.03,0.02 1.59,-0.01 3.13,0.3 4.69,0.61 0.71,0.8 1.43,1.59 2.16,2.38 0.79,2.89 1.2,5.62 1.1,8.63 -0.13,4.45 0.45,8.41 -1.29,12.6 -1.34,2.91 -4.93,2.82 -7.66,3.02 -24.66,-0.01 -49.41,0.09 -74.05,-0.01 -2.57,0.05 -4.2,-1.23 -6.01,-2.84 0.07,-43.59 0.02,-87.18 0.02,-130.77 0.07,-2.84 -0.26,-5.83 0.23,-8.62 1.58,-2.63 3.96,-2.85 6.78,-2.88 z"
     fill="#241a10"
     id="path27"
     style="display:inline" />
  <path
     d="m 350.04,728 c 3.22,-0.48 3.85,3.21 2.18,5.18 -5.4,6.84 -9.89,13.95 -15.5,20.59 -1.29,1.64 -2.87,1.14 -4.72,1.27 -6.73,-0.11 -13.46,0.08 -20.19,-0.12 1.18,-3.02 2.79,-5.78 4.49,-8.52 1.73,-3.3 3.35,-6.66 4.98,-10.01 1.45,-3 2.49,-5.95 4.95,-8.33 7.37,-2.21 16.04,0.54 23.81,-0.06 z"
     fill="#241a10"
     id="path28"
     style="display:inline" />
  <path
     d="m 631.53,765.61 c 2.06,0.81 4.08,1.71 6.11,2.6 4.9,2.57 9.61,5.71 13.65,9.5 7.86,7.96 13.22,18 14.35,29.23 -0.59,1.37 -0.67,4.08 -2.67,4.03 -6.65,0.15 -13.32,-0.05 -19.97,0.07 -1.35,-0.11 -3.21,0.25 -4.34,-0.59 -1.42,-3.69 -2.03,-7.39 -4.44,-10.67 -2.45,-3.81 -5.93,-6.04 -9.59,-8.56 -0.69,-0.3 -1.37,-0.6 -2.06,-0.9 -0.68,-0.37 -1.37,-0.74 -2.06,-1.11 -0.65,-0.17 -1.3,-0.34 -1.95,-0.52 -3.71,-0.88 -7.74,-1.92 -11.58,-1.64 -4.34,0.48 -8.55,1.49 -12.58,3.17 -6.48,3.68 -11.53,8.63 -15.15,15.16 -0.64,1.36 -1.31,2.71 -2.01,4.04 -4.66,11.61 -4.93,25.09 -2.01,37.16 0.94,2.69 1.89,5.36 2.97,7.99 1.73,2.93 3.55,5.91 5.64,8.6 2.51,3.1 6.23,5.42 9.55,7.58 0.69,0.33 1.38,0.66 2.07,0.99 2.14,0.74 4.28,1.6 6.5,2.08 5.98,0.43 11.77,0.72 17.56,-1.09 8.15,-2.69 14.41,-8.49 18.13,-16.17 0.91,-1.57 1.56,-2.94 3.5,-3.38 3.91,-0.4 7.92,-0.1 11.85,-0.17 4.22,0.09 8.02,-0.39 12.1,0.91 1.34,5.34 -1.14,10.94 -3.31,15.74 -5.66,11.24 -15.77,19.91 -27.32,24.73 -8.7,3.32 -18.15,5.1 -27.47,4.63 -7.78,0.52 -15.15,-1.3 -22.5,-3.63 -2.07,-0.79 -4.1,-1.7 -6.13,-2.6 -10.36,-5.71 -19.3,-14.87 -25.15,-25.12 -0.99,-2.02 -2.01,-4.04 -3.02,-6.05 -0.67,-1.68 -1.29,-3.37 -1.95,-5.05 -0.89,-3.15 -1.91,-6.27 -2.22,-9.54 -1.89,-14.44 -1.9,-30.81 3.6,-44.52 4.39,-11.25 12.11,-20.84 21.22,-28.66 3.53,-2.77 7.49,-4.73 11.53,-6.63 1.68,-0.67 3.36,-1.33 5.04,-2 14.52,-4.14 29.74,-4.76 44.11,0.39 z"
     fill="#241a10"
     id="path29"
     style="display:inline" />
  <path
     d="m 848.49,764.62 c 1.02,0.32 2.02,0.66 3.02,1.03 11.48,4.46 21.23,12.96 25.29,24.84 0.17,0.66 0.33,1.31 0.5,1.97 0.87,2.68 1.87,5.72 1.71,8.56 -0.68,1.55 -2.1,3.18 -3.97,2.97 -6.26,0.11 -12.53,-0.09 -18.79,0.06 -2.29,-1.35 -2.82,-3.23 -3.57,-5.61 -2.4,-4.35 -5.95,-7.62 -10.11,-10.26 -7.04,-2.45 -13.14,-2.3 -20.2,-0.05 -2.9,1.67 -5.13,3.71 -7.28,6.25 -0.44,2.64 -1.3,5.01 -0.63,7.65 0.7,5.11 5.87,9.12 9.92,11.76 2.41,0.86 4.79,1.8 7.11,2.88 1.01,0.31 2.01,0.64 3,0.99 3.39,1.14 6.72,2.44 10.09,3.64 10.04,3.42 19.67,7.2 27.57,14.55 5.61,6.19 9.21,14.74 8.92,23.15 0.04,7.85 -2.46,15.62 -7.19,21.92 -3.9,5.86 -9.35,9.31 -15.25,12.87 -5.09,2.15 -10.14,4.16 -15.65,4.92 -11.5,1.08 -22.85,0.68 -33.62,-3.9 -5.82,-2.65 -11.2,-5.86 -15.65,-10.52 -3.3,-3.47 -5.38,-7.42 -7.54,-11.63 -1.5,-4.03 -2.81,-8.39 -3.11,-12.68 -0.4,-2.16 1.89,-3.94 3.91,-3.76 5.68,-0.15 11.36,0.04 17.03,-0.06 1.31,0.12 3.12,-0.25 4.23,0.52 1.84,2.64 2.57,5.98 4.54,8.59 2.25,3.22 5.32,5.45 8.66,7.43 1.01,0.34 2.01,0.69 3.01,1.06 7.07,2.02 15.35,1.99 22.19,-0.91 3.12,-1.96 5.76,-4.03 6.67,-7.8 1.02,-2.74 0.1,-5.01 -0.4,-7.72 -2.58,-2.7 -5,-5.31 -8.41,-6.99 -3.86,-1.88 -8.04,-3.11 -12.05,-4.63 -2.97,-1.13 -5.98,-2.16 -8.92,-3.4 -1.37,-0.5 -2.74,-1.03 -4.11,-1.55 -3.02,-1.31 -6.06,-2.57 -9.03,-3.99 -8.8,-4.44 -16.49,-10.31 -21.21,-19.14 -0.81,-2.15 -1.65,-4.39 -2.17,-6.63 -2.14,-7.59 -0.5,-16.38 2.15,-23.66 1.95,-4.03 3.94,-7.84 7.05,-11.14 2.41,-2.55 5.44,-4.59 8.35,-6.56 2.86,-1.79 5.7,-3.21 8.85,-4.43 11.41,-3.89 23.6,-4.59 35.09,-0.59 z"
     fill="#241a10"
     id="path30"
     style="display:inline" />
  <path
     id="path31"
     style="display:inline;fill:#241a10;fill-opacity:1"
     d="M 186 764.61035 C 177.68 764.73035 169.26021 764.17053 160.97021 764.79053 C 158.92021 764.70053 157.00928 767.00947 157.00928 768.95947 C 156.93928 810.84947 156.96049 850.81062 157.00049 892.64063 C 158.10049 893.75063 159.21008 894.85996 160.33008 895.95996 C 170.50008 896.83996 180.78951 896.22037 190.99951 896.38037 C 202.65951 896.62037 214.24977 895.46059 225.50977 892.35059 C 229.27977 891.38059 232.91018 889.96934 236.43018 888.31934 C 250.26018 881.96934 260.37986 870.26994 266.35986 856.43994 C 268.85986 850.35994 271.01035 843.62 271.11035 837 C 271.96035 824 270.54955 811.17938 264.78955 799.35938 C 261.14955 792.34937 256.79014 785.43988 250.39014 780.62988 C 245.70014 776.27988 240.22945 773.2699 234.43945 770.6499 C 219.87945 764.3599 201.58 764.60035 186 764.61035 z M 196.91309 789.66211 C 200.94434 789.74711 204.97553 789.98971 209.04053 790.19971 C 214.10053 791.13971 218.91 792.14979 223.5 794.52979 C 230.75 797.96979 236.47984 804.1593 239.58984 811.5293 C 243.91984 822.8393 243.93025 834.96982 240.76025 846.56982 C 240.06025 848.22982 239.40049 849.90984 238.75049 851.58984 C 234.38049 859.47984 227.60031 865.90027 219.07031 869.03027 C 208.04031 873.22027 196.56066 871.71951 184.93066 871.99951 C 184.81066 869.99951 184.71947 867.99951 184.70947 865.99951 C 184.75947 840.68951 184.73979 815.38934 184.77979 790.06934 C 188.84979 789.64934 192.88184 789.57711 196.91309 789.66211 z " />
  <path
     d="m 293.38,765.15 c 2.46,-0.53 5.11,-0.61 7.62,-0.61 20.67,0.09 41.33,0.02 62,0.05 2.2,0.01 4.37,0.24 6.55,0.5 0.44,0.75 0.9,1.49 1.35,2.23 0.43,1.4 0.95,2.71 0.96,4.19 0.06,5.16 0.22,10.25 -0.91,15.32 -1.17,0.79 -2.4,2.33 -3.91,2.16 -15.67,0.04 -31.45,-0.01 -47.14,0.01 -0.21,9.65 -0.13,19.34 -0.04,28.99 13.62,-0.01 27.24,0.06 40.86,-0.04 0.99,0.77 2.44,1.38 3.05,2.5 1.34,4.01 1.17,8.31 1.25,12.55 -0.01,2.45 -0.13,5.29 -1.71,7.3 -1.33,1.26 -3.5,1.74 -5.29,1.71 -12.74,0.04 -25.47,-0.05 -38.2,-0.09 -0.04,9.7 -0.04,19.42 0.06,29.12 16.03,0.28 32.09,-0.14 48.11,0.13 3.65,0.49 4.75,3.54 5,6.79 0.06,4.01 0.07,8.07 0,12.08 0.01,2.35 -1.75,4.28 -3.15,5.98 -16.92,0.69 -33.9,0.13 -50.84,0.34 -8.24,-0.15 -16.56,0.45 -24.76,-0.34 -1.18,-1.23 -2.68,-2.38 -3,-4.14 -0.33,-2.93 -0.11,-5.94 -0.15,-8.88 -0.13,-37.34 0.01,-74.67 -0.09,-112.01 -0.03,-2.38 0.2,-4.47 2.38,-5.84 z"
     fill="#241a10"
     id="path32"
     style="display:inline" />
  <path
     d="m 406,764.55 c 5.2,0.15 10.5,-0.23 15.64,0.44 0.79,0.78 1.59,1.56 2.39,2.33 0.42,1.87 0.71,3.74 0.69,5.67 -0.09,30.67 -0.02,61.33 -0.1,92.01 -0.01,2.06 0.08,4.12 0.24,6.18 15.68,-0.07 31.5,-0.18 47.17,-0.05 3.6,0.54 4.79,4.72 4.8,7.85 -0.16,4.89 0.62,10.14 -0.87,14.71 -0.78,0.77 -1.56,1.54 -2.33,2.33 -4.92,0.55 -9.68,0.26 -14.63,0.31 -17,0.1 -34,-0.05 -51,0.07 -3.14,-0.01 -6.56,0.11 -9.63,-0.62 -2.91,-2.25 -2.27,-6.56 -2.29,-9.78 0.06,-38.86 0.08,-77.75 -0.05,-116.61 0.4,-0.7 0.8,-1.4 1.21,-2.1 2.2,-3.28 5.29,-2.49 8.76,-2.74 z"
     fill="#241a10"
     id="path33"
     style="display:inline" />
  <path
     d="m 499.99,764.89 c 6.56,-0.47 13.47,-0.55 20,0.26 3.14,0.86 3.23,4.14 3.44,6.83 0.13,27.37 -0.01,54.66 0.23,82.02 0.06,9.34 0.43,18.66 0.34,28 -0.12,4.56 0.61,8.68 -1.03,13.06 -4.33,1.88 -8.41,1.22 -12.97,1.31 -3.89,0.01 -7.78,0.01 -11.66,-0.36 -0.77,-0.78 -1.54,-1.54 -2.31,-2.3 -0.27,-1.24 -0.58,-2.43 -0.71,-3.69 0.2,-40.04 0.15,-80.93 -0.06,-120.98 0.32,-2.03 2.61,-4.23 4.73,-4.15 z"
     fill="#241a10"
     id="path34"
     style="display:inline" />
  <path
     d="m 690.36,765.18 c 2.5,-0.62 5.08,-0.64 7.64,-0.62 20,0.07 40,-0.02 59.99,0.02 2.46,0.02 5.26,-0.17 7.61,0.62 1.49,0.8 2.17,3.2 2.37,4.77 0.09,4.65 0.11,9.41 -0.03,14.06 0.03,1.9 -1.8,3.58 -2.87,5.04 -4.39,0.61 -8.68,0.29 -13.07,-0.02 -11.01,-0.09 -22.02,-0.05 -33.03,-0.03 -1.63,0.03 -2.67,0.05 -2.45,2.03 0.41,9.02 -0.04,18.07 0.13,27.09 12.78,0.55 25.59,0.11 38.37,0.39 1.24,0.08 2.45,0.28 3.68,0.46 0.72,0.8 1.45,1.59 2.18,2.39 1.23,5.87 1.54,12.46 0.08,18.32 -0.8,0.76 -1.59,1.53 -2.39,2.3 -12.86,0.01 -25.73,-0.02 -38.59,0.01 -1.47,-0.05 -2.56,0.27 -3.88,0.86 0.92,4.11 0.52,7.94 0.57,12.13 0.02,5.36 -0.05,10.74 0.15,16.1 15.72,0.06 31.52,-0.09 47.25,0.02 3.43,0.31 5,3.78 4.95,6.86 0.02,4.53 0,9.07 -0.06,13.6 -0.46,1.06 -0.9,2.14 -1.33,3.22 -3.44,2.13 -6.8,1.43 -10.63,1.53 -15.67,-0.02 -31.33,0.05 -47,0.06 -6.25,-0.04 -12.4,0.3 -18.63,-0.42 -0.78,-0.77 -1.55,-1.53 -2.34,-2.29 -1.06,-3.87 -0.83,-7.72 -0.72,-11.68 0.07,-37.83 -0.13,-75.69 0.04,-113.52 0.53,-1.17 0.92,-2.51 2.01,-3.3 z"
     fill="#241a10"
     id="path35"
     style="display:inline" />
</svg>
