<?xml version="1.0" encoding="UTF-8" standalone="no"?>
<svg
   version="1.1"
   viewBox="0 0 1024 1024"
   width="1024.0pt"
   height="1024.0pt"
   id="svg36"
   sodipodi:docname="Logo_mini.svg"
   inkscape:version="1.4.2 (f4327f4, 2025-05-13)"
   xmlns:inkscape="http://www.inkscape.org/namespaces/inkscape"
   xmlns:sodipodi="http://sodipodi.sourceforge.net/DTD/sodipodi-0.dtd"
   xmlns="http://www.w3.org/2000/svg"
   xmlns:svg="http://www.w3.org/2000/svg">
  <defs
     id="defs36" />
  <sodipodi:namedview
     id="namedview36"
     pagecolor="#505050"
     bordercolor="#ffffff"
     borderopacity="1"
     inkscape:showpageshadow="0"
     inkscape:pageopacity="0"
     inkscape:pagecheckerboard="1"
     inkscape:deskcolor="#505050"
     inkscape:document-units="pt"
     showgrid="false"
     inkscape:zoom="1"
     inkscape:cx="184.5"
     inkscape:cy="648.5"
     inkscape:window-width="3440"
     inkscape:window-height="1369"
     inkscape:window-x="2552"
     inkscape:window-y="-8"
     inkscape:window-maximized="1"
     inkscape:current-layer="svg36" />
  <path
     d="m 479.55742,162.25254 c 4.25424,2.44331 7.84734,5.49026 11.44044,8.81029 1.32226,1.55223 4.19676,0.47429 6.00768,0.40243 1.29352,-0.86235 2.58703,-1.72469 3.89493,-2.58704 1.94027,-0.91983 3.86617,-1.86841 5.79208,-2.83136 8.00544,-3.79432 16.35582,-6.45322 25.30983,-6.52508 11.25362,-0.35931 22.19102,0.27307 32.56792,5.03035 0.94858,0.5174 1.91152,1.02044 2.87448,1.52347 1.92591,0.94858 3.86618,1.88279 5.80646,2.78825 4.51294,3.06132 9.29895,6.16578 13.03578,10.1613 3.54999,4.13926 6.58258,8.7528 9.47143,13.36636 0.68988,1.33663 1.39412,2.67327 2.09838,4.02427 4.35484,8.62346 5.74896,17.7212 7.57427,27.07765 6.06515,0.97732 12.11595,1.06355 18.03738,2.83136 2.40019,0.99171 4.80039,1.96902 7.20059,2.94635 14.51614,6.59694 26.08594,18.38233 31.84928,33.28654 2.80262,8.29288 4.31173,16.21208 3.95242,24.99363 4.72853,-1.75343 9.50018,-3.24816 14.38679,-4.45545 9.67264,-2.44331 19.47463,-4.13926 29.39161,-5.1597 10.92304,-0.50303 20.96936,-2.22773 31.89241,-0.50303 20.23636,0.58927 40.45836,5.53339 59.48744,12.25968 2.41457,0.94857 4.84352,1.88278 7.25808,2.83136 17.60622,7.17184 34.01953,17.00258 48.85187,28.87419 9.22709,8.27853 18.68414,15.50785 26.3159,25.48231 9.39957,10.23317 16.94509,21.67361 24.16005,33.50212 4.0099,7.14309 7.80422,14.17121 10.86555,21.77422 1.0923,2.35708 2.04088,4.77165 2.97509,7.18622 9.28458,23.55639 14.05622,48.75125 14.86108,74.01797 0.60365,7.7611 -1.10668,15.23477 -1.06356,22.99587 -1.56659,15.34975 -4.51294,30.62763 -9.54329,45.24439 -2.27084,6.9275 -4.97285,13.68254 -8.00544,20.3226 -0.50303,0.96296 -1.00606,1.9259 -1.49472,2.88886 -2.83137,5.77771 -5.80646,11.45481 -9.18399,16.94508 -15.22039,24.66308 -35.16931,46.25046 -58.7832,63.08056 -3.95242,2.54393 -7.37306,5.30343 -10.73621,8.58035 3.11882,2.73075 6.22326,2.42893 10.1182,2.3427 16.71512,-1.06357 33.54523,-0.27308 50.30347,-0.6755 5.01598,0.14372 9.6439,-0.60365 13.06453,3.82306 0.28745,6.09391 0.27308,12.28842 -0.35931,18.35359 -0.70425,1.62408 -1.88278,3.10444 -2.88886,4.55604 -50.69153,-0.17246 -101.41181,-0.0287 -152.10334,-0.0719 -14.17121,0.41681 -29.23351,1.9834 -43.37598,0.37368 -21.27117,-0.99169 -42.4705,-6.20888 -62.14635,-14.28618 -7.02811,-2.91761 -13.61068,-6.16577 -20.12138,-10.08945 -3.56437,-1.8684 -7.02813,-3.88055 -10.6356,-5.66273 -2.15586,7.6605 -2.5008,15.69469 -4.81476,23.35519 -1.03481,2.4002 -1.92591,4.87225 -2.9176,7.28681 -2.60141,4.94412 -5.66273,9.60079 -9.41394,13.75442 -3.7512,3.98116 -9.01151,6.85564 -13.78315,9.44267 -5.9933,2.28522 -11.68478,4.39797 -18.19549,4.6423 -13.32324,1.23603 -26.81894,0.54615 -40.24278,0.71862 -21.96106,-0.14372 -44.02273,0.18684 -65.96942,-0.63238 -10.87992,0.56052 -21.7311,-0.0719 -32.6254,0.48866 8.26414,9.37082 17.44812,18.31046 27.00578,26.37339 7.718,7.14309 14.77485,14.99044 22.59345,22.00418 6.59694,5.36091 12.53275,11.38296 18.4973,17.41938 6.33824,6.7694 10.49188,16.28395 7.60302,25.56853 -1.85404,8.86779 -8.42224,14.88983 -16.44205,18.48294 -5.14533,1.52348 -10.13255,2.47206 -15.39287,0.77611 -9.25583,-2.14149 -14.97606,-8.68094 -20.92625,-15.55096 -5.77771,-7.67488 -13.32323,-13.45259 -19.28779,-20.955 -5.28904,-6.66879 -11.88599,-12.04408 -17.26127,-18.64103 -7.02812,-8.27851 -15.23477,-15.42161 -22.07605,-23.82946 -6.56819,-7.78986 -14.70298,-14.31494 -20.86875,-22.27726 -3.36315,-4.168 -7.14309,-7.61739 -10.93742,-11.49794 -3.5356,3.88055 -7.44491,7.40179 -10.89428,11.35421 -6.18015,8.17791 -14.1281,14.55926 -20.33699,22.75154 -8.81029,8.53723 -16.32707,18.10925 -24.99364,26.7902 -4.34047,5.69148 -9.47142,10.62122 -13.89813,16.24084 -4.62792,5.54775 -10.11819,9.94572 -14.68862,15.50784 -5.47589,6.71192 -10.92303,12.99267 -18.61228,17.23254 -4.31174,1.91152 -8.9109,3.32003 -13.62506,3.70808 -4.16801,0.24434 -8.60909,-1.76781 -12.56149,-3.00384 -5.01598,-3.20504 -9.67265,-7.20057 -11.82851,-12.90643 -2.83137,-6.82691 -2.4002,-14.19995 0.0719,-21.04122 4.85789,-8.10605 12.93519,-13.94126 19.76209,-20.79691 7.86171,-6.02203 14.09935,-13.66817 21.90356,-19.73333 4.72854,-3.93804 8.63783,-8.68094 13.5532,-12.41777 6.43884,-5.05909 11.48357,-11.45483 17.96553,-16.4708 5.6771,-4.38359 10.07507,-10.01757 15.75217,-14.41554 7.11435,-5.43278 12.37466,-12.51837 19.48901,-17.95115 2.3427,-1.81093 4.39796,-3.89493 6.3526,-6.12266 -8.13478,-8.65219 -16.08273,-17.67807 -24.95052,-25.56854 -7.83297,-7.74673 -15.49347,-15.69468 -23.06773,-23.70012 -6.4676,-0.66112 -12.93518,0.37368 -19.44589,0.1581 -8.47973,0.33056 -17.07443,-1.20729 -25.123,-3.83743 -1.99777,-0.733 -3.99553,-1.48037 -5.97892,-2.22773 -11.33985,-4.82913 -20.92625,-12.34592 -29.62156,-20.94062 -8.24977,-9.4858 -16.15461,-19.2878 -23.90134,-29.17602 -19.58961,-23.57078 -39.02113,-47.38588 -58.66823,-70.89916 -1.43724,-2.08399 -2.38582,-4.57042 -3.46376,-6.84128 1.39413,-2.54391 2.93198,-4.80038 4.78602,-7.04248 1.62409,0.0288 3.24817,0.0431 4.87225,0.0575 9.11212,6.06517 15.56534,15.55096 24.37563,22.17665 9.24147,7.94795 17.31877,17.23254 26.30153,25.46793 13.02142,11.18175 24.95053,23.67139 36.9515,35.91669 3.16194,-0.30183 5.28905,-1.52348 7.80423,-3.34877 -0.0144,-2.08401 -0.0288,-4.18238 -0.0431,-6.26639 -4.72853,-4.57042 -9.55767,-9.1696 -13.75441,-14.24306 -6.62569,-8.22103 -14.77486,-14.88983 -21.50115,-23.05336 -6.71192,-8.1348 -14.83233,-14.81797 -21.52989,-22.93839 -7.20058,-9.09774 -17.00257,-16.42769 -23.80073,-25.7985 -0.0863,-4.4267 0.3162,-7.11435 3.9668,-9.88823 2.77387,-2.77388 6.45321,0.40242 8.79592,2.17023 8.39349,6.42449 15.17727,14.51615 23.52765,20.96937 4.25424,3.57874 7.57427,7.77548 11.94348,11.12426 5.77772,4.22549 10.20442,9.85947 16.01088,14.08497 6.43885,6.10828 13.48134,11.45482 19.74771,17.74994 5.04473,4.35484 10.20442,8.45099 14.58801,13.49571 3.96679,0.0719 5.15969,-0.74737 7.94795,-3.36316 -0.0144,-1.69593 -0.0288,-3.37751 -0.0431,-5.05909 -13.62506,-12.80582 -26.76145,-26.2153 -39.32295,-40.07031 -13.32323,-13.49571 -26.66084,-26.97703 -40.15655,-40.31464 -2.18461,-2.40019 -4.51293,-3.99553 -3.98115,-7.63176 -0.27308,-4.0674 2.55829,-6.12265 4.88661,-8.93965 7.77548,0.0863 11.74228,7.01375 17.62059,11.06678 30.11024,26.11468 60.85284,52.24374 91.19303,78.15722 -3.10445,-22.55032 -8.24978,-44.82758 -11.9866,-67.27731 -4.4842,-22.85215 -7.73237,-45.97738 -12.76271,-68.70017 -16.75826,-4.38359 -29.16165,-20.36573 -32.12237,-37.00899 -2.19898,-11.2536 0.0719,-22.89527 6.16577,-32.58229 3.69372,-6.22325 9.47143,-11.03801 14.67425,-16.19771 0.0575,-4.57043 -0.0719,-9.15524 -0.0288,-13.72567 -0.22996,-5.87832 1.91152,-11.9866 4.02427,-17.41937 5.90707,-14.51614 18.00865,-25.46794 32.48167,-31.17379 4.13926,-1.5091 8.3935,-3.0757 12.69086,-4.03865 4.0674,-0.86234 8.10605,-0.34493 12.0872,-0.79048 4.49858,-4.3261 6.87002,-10.36252 11.65604,-14.55926 5.43277,-6.00767 10.98053,-10.00321 18.18111,-13.66817 4.44108,-1.73907 9.16961,-3.53562 13.88376,-4.39797 4.59918,-0.45991 9.29896,-0.14373 13.92688,-0.2587 3.27691,-28.75922 25.18049,-51.25206 51.42453,-61.3415 20.02078,-7.37305 42.1112,-4.38359 60.37854,6.20889 z"
     fill="#241a10"
     id="path2"
     style="display:inline;stroke-width:1.43724" />
  <path
     d="m 464.7231,182.05022 c 11.33984,5.34654 19.77645,15.27788 22.86653,27.4657 0.73299,1.89715 1.30789,6.07953 3.70808,6.46759 3.37752,-0.94859 6.45322,-2.64452 9.93134,-3.34877 1.22166,-5.72023 1.86842,-10.99491 5.33218,-15.92465 5.6771,-9.04025 16.14023,-12.8202 26.33027,-13.79753 12.40341,-0.35931 24.72057,3.47813 33.74645,12.21657 8.20665,7.5024 13.12202,18.22423 12.4034,29.43471 0.0144,7.718 -4.7429,15.4791 -4.12488,23.01025 0.64675,4.26861 3.30565,5.43278 6.72629,7.3012 4.23986,-1.95465 8.4941,-4.78602 13.06453,-5.51902 9.8451,-1.30788 19.86269,-0.99169 28.80234,3.77994 7.603,4.09615 14.25744,11.48358 16.32707,19.99204 1.99777,8.42225 1.43724,17.16068 -3.80869,24.3469 -3.47814,2.64452 -7.21497,4.75727 -10.30504,7.93357 -14.15683,1.69595 -27.76752,1.63845 -38.56121,12.4034 1.96902,2.71639 3.92367,5.43278 5.86396,8.14917 6.06516,-2.90323 12.07283,-5.33217 18.92847,-5.27469 6.71192,-0.56052 13.52446,1.33663 20.1214,0.58928 4.18237,-2.09838 3.03258,-5.20282 2.05525,-8.89653 3.63623,-0.45992 7.22933,-1.29352 10.87993,-1.58097 4.4267,-0.20121 9.01151,1.20728 13.13639,2.68764 8.73844,3.03259 15.22039,11.46919 17.21816,20.32261 2.88886,10.31939 -0.77611,22.19101 -6.76941,30.75698 -3.47812,5.40403 -9.14085,8.92528 -15.24913,10.57811 -8.70969,1.45161 -16.97384,0.0719 -24.83556,-3.82307 -6.5107,5.53338 -14.15683,6.87001 -22.32036,8.22102 -6.33824,0.79049 -12.69086,-0.30182 -18.59792,-2.64452 -3.99553,-1.58097 -7.20058,-5.11659 -10.63559,-7.74673 0.86235,-9.16961 1.79655,-19.58962 -2.45768,-28.05498 -1.29353,-2.55829 -2.67328,-6.32387 -5.84958,-6.88438 -2.54392,-0.41681 -7.1431,-0.18684 -7.61738,3.11881 -0.8911,5.72023 -0.27309,11.59855 -1.58097,17.34751 -2.83137,11.0524 -8.89653,21.02685 -18.85662,26.97704 -4.26861,2.73077 -9.39956,2.90323 -13.75441,5.01597 -1.33663,1.32227 -2.47205,2.88887 -3.63622,4.38359 -9.78763,-2.21334 -19.01472,-5.6771 -26.77583,-12.21656 -9.57203,-7.41616 -14.38679,-17.43375 -19.90579,-27.86812 -2.9751,0.68987 -5.04473,1.09231 -8.03419,0.1581 -5.18845,10.21879 -12.73397,21.81733 -22.99588,27.49444 -11.22487,6.28074 -24.63433,5.20282 -35.78734,-0.61802 -5.66273,-3.03258 -9.62952,-8.46535 -14.15683,-13.00703 -4.22549,5.20281 -8.04855,10.82242 -12.60461,15.72342 -7.34431,6.84128 -16.4708,12.24531 -26.81894,11.92912 -7.14309,-0.8336 -14.27181,-3.52125 -20.19325,-7.61739 -1.96902,-3.30566 -3.67935,-5.08784 -7.09998,-6.85565 0.45992,0.8911 0.9342,1.76781 1.42286,2.64453 -6.12264,-5.13096 -11.44044,-11.3111 -16.44205,-17.51998 -7.83296,6.32386 -15.11978,12.41777 -24.93615,15.4791 -8.98276,2.90323 -19.89143,2.27084 -27.83938,-3.06133 -7.05686,-4.82913 -9.62952,-13.68255 -9.18398,-21.83171 0.60365,-8.06293 7.35868,-14.83234 14.41554,-17.96553 4.77165,-2.02651 9.55767,-3.88055 14.02749,-6.56819 -2.45768,-5.1597 -5.04473,-10.01759 -6.20889,-15.68032 -2.15586,-7.68925 -0.58927,-16.80136 4.18237,-23.22584 12.13033,-16.16897 38.01506,-19.61835 54.22716,-7.80421 2.09837,1.1929 3.70808,2.61577 6.29512,2.24209 2.32833,-0.6755 4.25423,-2.94635 6.05079,-4.49857 -0.27308,-3.0757 0.27307,-5.86395 -1.53785,-8.47973 -3.0757,-4.35484 -7.24371,-8.00543 -10.90867,-11.87162 2.02651,-2.86012 3.95242,-5.63399 6.52508,-8.06292 6.88439,-6.98501 17.7212,-9.97447 27.26449,-10.23317 8.00543,-0.45992 14.38679,2.96072 21.01248,6.92751 2.14149,-1.53785 4.31172,-3.04696 6.48196,-4.54168 -2.22772,-10.50625 -2.75951,-21.17059 -1.04919,-31.79181 5.40403,-17.64933 20.61005,-33.05656 39.40918,-35.45676 10.80807,-1.43724 22.90965,0.22996 32.68289,5.17407 z"
     fill="#f4e2b9"
     id="path3"
     style="display:inline;stroke-width:1.43724" />
  <path
     d="m 470.08402,248.59453 c 7.84734,4.03865 12.17344,10.56373 16.94508,17.63497 5.20282,-1.39412 10.27628,-2.54392 15.70905,-1.83967 13.53883,0.90546 24.9649,11.26797 30.38331,23.21146 3.34878,8.09168 3.79431,19.08658 -1.03482,26.67521 -3.73683,5.26032 -9.96009,10.72183 -16.90197,8.37912 1.43724,-3.30565 3.34878,-6.84127 3.88056,-10.40563 0.81923,-9.45705 -6.19451,-18.3967 -14.588,-21.93231 -6.84128,-2.80262 -13.15077,-0.60365 -20.04954,-1.39413 -2.25647,-3.93804 -3.42064,-8.86778 -6.49633,-12.24531 -3.54999,-3.80868 -8.30726,-6.64006 -13.26575,-8.1779 -6.35261,-1.81092 -13.82627,0.34494 -19.40277,3.56436 -8.30725,5.14533 -10.96616,14.25744 -18.98596,19.99204 -3.79433,-1.58097 -7.32995,-2.15586 -9.19836,-6.28075 -1.35101,-3.82307 -0.63239,-8.50847 1.14979,-12.10158 5.67711,-11.13862 14.86109,-20.29386 26.35903,-25.3242 7.9192,-3.47814 17.6637,-3.46376 25.49668,0.24432 z"
     fill="#ddb960"
     id="path4"
     style="display:inline;stroke-width:1.43724" />
  <path
     d="m 374.83797,297.89194 c 8.53722,1.02045 16.65764,5.74897 21.83171,12.60462 2.98947,4.05302 2.22773,10.13256 -1.8253,13.16514 -8.83904,-1.33664 -16.32706,-3.54999 -24.76368,1.13542 -7.3012,3.9093 -9.96009,10.4775 -12.70522,17.80743 -2.09837,-0.20121 -4.46982,0 -6.43884,-0.77612 -4.68542,-3.60747 -5.79209,-9.64389 -5.634,-15.23476 0.28746,-7.86172 4.34047,-14.35805 9.61515,-19.9058 4.97286,-5.36092 12.57587,-8.95402 19.92018,-8.79593 z"
     fill="#ddb960"
     id="path5"
     style="display:inline;stroke-width:1.43724" />
  <path
     d="m 732.69691,302.20367 c 18.16675,1.1498 36.06041,3.66496 53.29295,9.77324 26.9914,9.62952 52.4306,24.80681 71.67527,46.26484 32.8841,33.9764 50.64841,80.85924 51.62574,127.87143 -0.86235,16.9882 -2.60141,33.71771 -7.28682,50.14538 -13.26575,45.27313 -45.41686,84.68232 -86.99627,106.93083 -47.93203,26.12906 -107.76443,29.60719 -157.93856,7.67487 -9.61514,-4.45545 -18.79912,-9.87385 -27.81063,-15.45035 -1.95465,-1.62408 -5.43278,-2.68765 -4.62791,-5.82084 1.40849,-9.18397 3.21942,-18.35358 4.90098,-27.50881 7.1431,8.88216 14.30057,16.80137 25.22361,21.08434 19.8052,7.04249 43.16038,-0.0288 55.3482,-17.26127 6.52508,-9.65827 10.56373,-21.86046 9.51454,-33.57398 -1.20729,-11.12425 -5.23156,-21.7311 -13.10765,-29.83715 -9.61515,-10.59248 -24.30376,-16.01088 -38.48934,-14.4874 -10.26191,1.2504 -18.20986,5.90706 -27.27886,10.31939 2.15586,-10.98053 3.69372,-22.07604 5.66274,-33.08531 16.87322,-7.14309 28.2418,-23.77199 28.83107,-42.09683 0.25871,-11.05239 -3.4925,-22.52158 -10.60684,-31.04443 -1.06356,-1.62409 -3.27692,-3.47813 -2.86012,-5.56212 0.79049,-8.42224 2.73076,-16.70076 3.69372,-25.10863 0.0431,-1.92591 2.65889,-3.21942 4.02428,-4.25423 6.07953,-3.66498 11.36858,-8.36475 17.27564,-12.24531 1.65283,5.53339 2.87449,11.48356 5.40404,16.6289 7.04248,14.51615 21.87483,24.89303 37.8282,26.91954 20.86877,2.19899 42.19744,-10.69308 50.07353,-30.12459 7.47366,-17.13193 4.51294,-38.1013 -8.52285,-51.69761 -12.07283,-12.64773 -31.43248,-17.8218 -48.06138,-11.9866 -9.28458,3.06133 -16.32707,8.9109 -22.78029,16.06837 0.50303,-9.11212 1.3079,-17.51999 -1.82529,-26.27279 -1.95465,-6.72629 -5.97893,-11.90036 -9.84511,-17.57747 14.588,-2.45769 28.75921,-4.87225 43.66341,-4.68541 z"
     fill="#cfb58d"
     id="path6"
     style="display:inline;stroke-width:1.43724" />
  <path
     d="m 625.72297,305.40872 c 1.60972,4.08176 4.98724,4.88663 8.40787,6.97063 0.97733,3.69371 2.12712,6.79815 -2.05525,8.89653 -6.59694,0.74735 -13.40948,-1.1498 -20.1214,-0.58928 -6.85564,-0.0575 -12.86331,2.37146 -18.92847,5.27469 -1.94029,-2.71639 -3.89494,-5.43278 -5.86396,-8.14917 10.79369,-10.76495 24.40438,-10.70745 38.56121,-12.4034 z"
     fill="#ddb960"
     id="path7"
     style="display:inline;stroke-width:1.43724" />
  <path
     d="m 568.65009,334.21106 c 3.1763,0.56051 4.55605,4.32609 5.84958,6.88438 4.25423,8.46536 3.32003,18.88537 2.45768,28.05498 -3.39189,4.23986 -7.2437,8.16353 -11.36859,11.71351 -11.44045,9.70139 -27.82501,13.22264 -42.38427,10.19005 1.16417,-1.49472 2.29959,-3.06132 3.63622,-4.38359 4.35485,-2.11274 9.4858,-2.2852 13.75441,-5.01597 9.96009,-5.95019 16.02525,-15.92464 18.85662,-26.97704 1.30788,-5.74896 0.68987,-11.62728 1.58097,-17.34751 0.47428,-3.30565 5.07346,-3.53562 7.61738,-3.11881 z"
     fill="#ddb960"
     id="path8"
     style="display:inline;stroke-width:1.43724" />
  <path
     d="m 328.83185,378.17629 c 3.42063,1.76781 5.13096,3.54999 7.09998,6.85565 -1.95465,-1.32226 -3.86619,-2.68765 -5.67712,-4.21112 -0.48866,-0.87672 -0.96294,-1.75343 -1.42286,-2.64453 z"
     fill="#ffffff"
     id="path9"
     style="display:inline;stroke-width:1.43724;fill:#f4e2b9;fill-opacity:1" />
  <path
     d="m 470.81701,388.79751 c 10.49186,12.25967 24.40437,21.35743 39.99846,25.61166 -3.01821,36.10352 -4.82914,72.36515 -8.22103,108.42556 -25.87036,25.94221 -50.31785,53.22107 -75.98701,79.36451 l 0.60364,-1.13542 c -1.06355,-9.08338 -0.34493,-18.16674 -1.00606,-27.26449 -0.47429,-7.67487 -1.20728,-15.29225 -1.0923,-22.99587 0.14372,-10.08945 -1.55222,-20.0639 -1.43724,-30.18209 0.18684,-11.55542 -1.7247,-22.93838 -1.43724,-34.49382 0.10054,-10.60684 -1.71033,-21.02685 -1.43726,-31.61933 0.12936,-11.08112 -1.55222,-21.9898 -1.43724,-33.05656 0.0719,-4.68541 -0.18684,-9.24147 -0.7761,-13.88376 12.99266,2.47206 27.13513,-0.61801 38.40311,-7.4018 5.37528,-3.16193 8.9109,-7.48804 13.82627,-11.36859 z"
     fill="#af3126"
     id="path10"
     style="display:inline;stroke-width:1.43724" />
  <path
     d="m 310.00397,396.94668 c 3.99553,3.40626 7.44492,7.04248 11.97223,9.83073 8.66658,5.30343 18.138,8.01982 28.05498,9.91698 -0.91985,0 -1.83968,0.0144 -2.75952,0.0431 0.66114,20.29387 4.46983,40.51586 6.20889,60.75224 6.12265,59.37247 13.42385,118.35689 19.11533,177.82997 -1.91154,1.25041 -5.07347,5.46152 -7.22933,2.74514 -12.41778,-11.59854 -25.64041,-22.34911 -38.38875,-33.60273 -2.83137,-2.29959 -2.98946,-7.02811 -3.7512,-10.39126 -10.27627,-63.39676 -22.39224,-126.52043 -33.77519,-189.73034 -1.16416,-6.07953 -2.3427,-12.10158 -2.68765,-18.29609 8.8678,-0.66114 15.95339,-4.35485 23.24021,-9.09774 z"
     fill="#af3126"
     id="path11"
     style="display:inline;stroke-width:1.43724" />
  <path
     d="m 632.06121,396.40052 c 2.87449,0.63239 5.70586,1.46599 8.53723,2.29959 -5.54776,28.18432 -10.08945,56.56986 -15.27789,84.82604 -3.6506,19.02909 -6.68317,38.17315 -10.30502,57.20224 -7.718,43.90775 -16.03964,87.68615 -23.90135,131.56515 -1.5091,9.06901 -6.59694,17.46249 -15.78091,20.25075 -8.85342,2.01213 -18.39671,1.45162 -27.45133,1.9259 4.94411,-39.23671 9.74449,-78.54529 14.58801,-117.79637 0.63239,-4.92974 0.90546,-9.9026 1.13542,-14.86108 13.22262,-15.26352 24.74931,-32.84099 31.97864,-51.7551 3.24817,-8.10604 4.95848,-16.64326 4.28298,-25.39607 -0.58928,-7.5599 -6.985,-14.12809 -13.29449,-17.67808 -4.35485,-2.48643 -8.69532,-2.71639 -13.46696,-1.40849 3.03258,-20.91188 5.28905,-41.96748 8.01981,-62.92247 6.06516,2.48643 12.80583,3.93804 19.34528,4.21111 11.65603,0.14373 22.01855,-4.12488 31.59058,-10.46312 z"
     fill="#af3126"
     id="path12"
     style="display:inline;stroke-width:1.43724" />
  <path
     d="m 398.19316,398.98757 c 6.78378,3.42062 12.70522,7.3443 20.39447,8.58033 0.58926,4.64229 0.84797,9.19835 0.7761,13.88376 -0.11498,11.06676 1.5666,21.97544 1.43724,33.05656 -0.27307,10.59248 1.53786,21.01249 1.43726,31.61933 -0.28746,11.55544 1.62408,22.9384 1.43724,34.49382 -0.11498,10.11819 1.58096,20.09264 1.43724,30.18209 -0.11498,7.70362 0.61801,15.321 1.0923,22.99587 0.66113,9.09775 -0.0575,18.18111 1.00606,27.26449 l -0.60364,1.13542 c -10.49186,10.70745 -20.66753,21.80296 -31.60494,32.0505 -7.84735,6.65443 -14.83235,14.14247 -22.40661,21.06997 -5.69148,-59.47308 -12.99268,-118.45751 -19.11533,-177.82997 -1.73906,-20.23638 -5.54775,-40.45838 -6.20889,-60.75224 0.91984,-0.0288 1.83967,-0.0431 2.75952,-0.0431 8.04855,1.03481 15.88152,0.51741 23.59951,-1.99776 9.7445,-2.78826 17.13192,-9.14086 24.56247,-15.70906 z"
     fill="#f4e2b9"
     id="path13"
     style="display:inline;stroke-width:1.43724" />
  <path
     d="m 576.78488,401.38775 c 0.97732,-0.0288 1.94028,-0.0288 2.93197,-0.0144 l 1.4085,1.27915 c -2.73076,20.95499 -4.98723,42.01058 -8.01981,62.92247 -8.89653,2.32832 -15.69468,7.44491 -22.80904,12.97829 -2.7595,-2.08401 -6.81252,0.74737 -4.57043,3.85181 -2.54391,2.25647 -5.04472,4.57043 -7.70361,6.69754 -2.65891,1.06357 -5.08784,2.01215 -7.01374,4.23988 l -0.18685,2.37145 c -9.41394,9.06899 -19.11532,17.73556 -28.22743,27.12076 3.39189,-36.06041 5.20282,-72.32204 8.22103,-108.42557 l 1.27913,0.40244 c 6.78379,2.58704 13.61069,3.0182 20.76816,3.70808 16.06836,0.60364 32.35232,-6.07954 43.92212,-17.13193 z"
     fill="#f4e2b9"
     id="path14"
     style="display:inline;stroke-width:1.43724" />
  <path
     d="m 826.44822,408.99077 c 14.1281,-2.06963 29.52096,2.61578 39.91222,12.46089 8.92528,8.24977 14.14247,19.60398 15.49348,31.61932 1.82529,21.77422 -12.01536,42.91606 -32.17986,50.86401 -8.52285,3.14756 -17.46249,4.71415 -26.43089,2.44331 -25.25234,-4.0674 -44.10896,-30.2252 -39.62476,-55.43443 3.46375,-21.21369 21.57301,-38.89178 42.82981,-41.9531 z"
     fill="#241a10"
     id="path15"
     style="display:inline;stroke-width:1.43724" />
  <path
     d="m 722.98116,460.674 c 4.34047,-1.16417 9.47143,-1.2504 13.84064,-0.14373 10.29065,3.21942 17.96553,13.28012 17.69245,24.18879 0.64677,13.12202 -11.51231,25.55417 -24.72057,24.76369 -11.08114,0.21558 -20.98373,-8.1348 -23.55639,-18.78476 -3.57874,-12.70522 4.4842,-25.95659 16.74387,-30.02399 z"
     fill="#241a10"
     id="path16"
     style="display:inline;stroke-width:1.43724" />
  <path
     d="m 550.484,478.53296 c -1.75298,1.44212 -3.50596,2.8684 -5.30903,4.24714 -2.60442,-3.42307 2.10358,-6.54505 5.30903,-4.24714 z"
     fill="#ffffff"
     id="path17"
     style="display:inline;fill:#f4e2b9;fill-opacity:1;stroke-width:1.62658" />
  <path
     d="m 538.30371,488.91515 c -2.55645,2.29253 -5.1129,4.60003 -7.66934,6.89257 l 0.19901,-2.47233 c 2.05128,-2.3225 4.63833,-3.31144 7.47033,-4.42024 z"
     fill="#ffffff"
     id="path18"
     style="fill:#f4e2b9;fill-opacity:1;stroke-width:1.51451" />
  <path
     d="m 780.77266,525.63735 c 13.42385,-3.53562 27.91125,-1.12105 39.36607,6.72629 18.2961,12.21656 25.52543,36.92276 17.56311,57.33159 -6.81253,20.32261 -27.62381,34.26386 -49.00997,32.95596 -26.96266,-0.97731 -49.26867,-27.98309 -44.95693,-54.64394 2.68764,-20.07827 17.30439,-37.28206 37.03772,-42.3699 z"
     fill="#241a10"
     id="path19"
     style="display:inline;stroke-width:1.43724" />
  <path
     d="m 563.60537,561.81274 c -0.22996,4.95848 -0.50303,9.93134 -1.13542,14.86108 -4.84352,39.25108 -9.6439,78.55966 -14.58801,117.79637 -18.18112,0.0575 -36.3766,0.17247 -54.55772,-0.0719 1.23603,-20.92624 3.11882,-41.78062 4.91537,-62.67813 7.37306,-8.99714 16.054,-16.97383 23.98757,-25.46793 13.85501,-14.68862 28.83108,-28.7161 41.37821,-44.43953 z"
     fill="#f4e2b9"
     id="path20"
     style="display:inline;stroke-width:1.43724" />
  <path
     d="m 498.23959,631.7202 c -1.79655,20.8975 -3.67934,41.75189 -4.91537,62.67813 -15.04792,-0.79049 -30.15334,-0.18685 -45.21564,-0.63238 -14.71736,-0.51741 -29.8084,1.32226 -44.39642,-0.25871 8.83905,0.58927 18.16675,1.19291 26.91956,-0.24433 0.74736,-11.77102 -1.19292,-23.67138 -1.20729,-35.49989 -1.86841,0.0575 -3.73683,0.14373 -5.60525,0.24434 5.49027,-0.96296 11.52669,0.31619 17.11756,0.44554 7.08561,0.1581 14.24308,0.33056 21.3143,-0.0719 5.7346,-0.4743 10.43439,-3.21943 14.8036,-6.76942 7.44491,-6.12265 14.87546,-12.59024 21.18495,-19.89143 z"
     fill="#af3126"
     id="path21"
     style="display:inline;stroke-width:1.43724" />
  <path
     d="m 423.81918,658.00736 c 1.86842,-0.10066 3.73684,-0.18684 5.60525,-0.24434 0.0144,11.82851 1.95465,23.72887 1.20729,35.49989 -8.75281,1.43724 -18.08051,0.8336 -26.91956,0.24433 -3.04694,-1.96903 -5.82082,-4.68542 -7.87608,-7.67488 8.93965,-9.5864 18.2386,-19.05783 27.9831,-27.825 z"
     fill="#f4e2b9"
     id="path22"
     style="display:inline;stroke-width:1.43724" />
  <path
     d="m 328.83185,378.17629 c 3.42063,1.76781 5.13096,3.54999 7.09998,6.85565 -1.95465,-1.32226 -3.86619,-2.68765 -5.67712,-4.21112 -0.48866,-0.87672 -0.96294,-1.75343 -1.42286,-2.64453 z"
     fill="#ffffff"
     id="path36"
     style="display:inline;stroke-width:1.43724;fill:#f4e2b9;fill-opacity:1" />
</svg>
