<svg width="40" height="40" viewBox="0 0 40 40" fill="none" xmlns="http://www.w3.org/2000/svg">
<path d="M28.75 4.25004C29.2096 3.79041 29.7553 3.42582 30.3558 3.17707C30.9563 2.92832 31.6 2.80029 32.25 2.80029C32.9 2.80029 33.5437 2.92832 34.1442 3.17707C34.7447 3.42582 35.2904 3.79041 35.75 4.25004C36.2096 4.70967 36.5742 5.25532 36.823 5.85585C37.0717 6.45639 37.1997 7.10003 37.1997 7.75004C37.1997 8.40005 37.0717 9.0437 36.823 9.64423C36.5742 10.2448 36.2096 10.7904 35.75 11.25L12.125 34.875L2.5 37.5L5.125 27.875L28.75 4.25004Z" stroke="#1E1E1E" stroke-width="4" stroke-linecap="round" stroke-linejoin="round"/>
</svg>
