<svg width="43" height="39" viewBox="0 0 43 39" fill="none" xmlns="http://www.w3.org/2000/svg">
<path d="M17.9375 5.25H41.0938M17.9375 5.25C17.9375 6.19483 17.5622 7.10097 16.8941 7.76907C16.226 8.43717 15.3198 8.8125 14.375 8.8125C13.4302 8.8125 12.524 8.43717 11.8559 7.76907C11.1878 7.10097 10.8125 6.19483 10.8125 5.25M17.9375 5.25C17.9375 4.30517 17.5622 3.39903 16.8941 2.73093C16.226 2.06283 15.3198 1.6875 14.375 1.6875C13.4302 1.6875 12.524 2.06283 11.8559 2.73093C11.1878 3.39903 10.8125 4.30517 10.8125 5.25M10.8125 5.25H1.90625M17.9375 33.75H41.0938M17.9375 33.75C17.9375 34.6948 17.5622 35.601 16.8941 36.2691C16.226 36.9372 15.3198 37.3125 14.375 37.3125C13.4302 37.3125 12.524 36.9372 11.8559 36.2691C11.1878 35.601 10.8125 34.6948 10.8125 33.75M17.9375 33.75C17.9375 32.8052 17.5622 31.899 16.8941 31.2309C16.226 30.5628 15.3198 30.1875 14.375 30.1875C13.4302 30.1875 12.524 30.5628 11.8559 31.2309C11.1878 31.899 10.8125 32.8052 10.8125 33.75M10.8125 33.75H1.90625M32.1875 19.5H41.0938M32.1875 19.5C32.1875 20.4448 31.8122 21.351 31.1441 22.0191C30.476 22.6872 29.5698 23.0625 28.625 23.0625C27.6802 23.0625 26.774 22.6872 26.1059 22.0191C25.4378 21.351 25.0625 20.4448 25.0625 19.5M32.1875 19.5C32.1875 18.5552 31.8122 17.649 31.1441 16.9809C30.476 16.3128 29.5698 15.9375 28.625 15.9375C27.6802 15.9375 26.774 16.3128 26.1059 16.9809C25.4378 17.649 25.0625 18.5552 25.0625 19.5M25.0625 19.5H1.90625" stroke="#2E2E2E" stroke-width="3" stroke-linecap="round" stroke-linejoin="round"/>
</svg>
