<svg width="23" height="23" viewBox="0 0 23 23" fill="none" xmlns="http://www.w3.org/2000/svg">
<path d="M2.29614 16.9861L2.31177 16.9714L5.93677 13.4822L9.54321 10.0115L9.41919 9.05347C8.949 5.53457 11.3738 2.74159 14.9241 2.69604V2.69702C15.3946 2.68572 16.1101 2.76414 16.511 2.86694L16.51 2.86792C18.0745 3.25532 19.3801 4.30331 20.0745 5.72827L20.0754 5.72729C20.8251 7.23303 20.8719 8.77091 20.2161 10.2898L20.0754 10.5935C18.9565 12.8752 16.5074 13.988 13.6223 13.5222L13.0989 13.4373L12.3372 14.1863L11.5442 14.9656L11.5295 14.9792L11.51 14.9802L9.76099 15.0027L8.0481 15.0359L8.01489 16.3201L7.97974 17.6414L7.97876 17.6902H5.1936V20.4001H2.29614V16.9861ZM7.40845 9.47437L7.3938 9.48901L3.89673 12.8767L0.414307 16.2615V18.9607C0.414307 20.3228 0.414775 21.003 0.449463 21.3826C0.466764 21.5718 0.49254 21.6818 0.528564 21.7625C0.564342 21.8424 0.611673 21.897 0.681885 21.9763L0.946533 22.2761H6.6604L6.92505 21.9773C7.04453 21.8395 7.10886 21.7418 7.14575 21.571C7.18366 21.3952 7.19263 21.1407 7.19263 20.6882V19.6472L7.24048 19.6453L8.3479 19.6003V19.5994C8.7211 19.5881 9.00496 19.5725 9.2229 19.5339C9.44047 19.4954 9.58694 19.4355 9.6897 19.3386C9.79224 19.2419 9.85791 19.1024 9.90259 18.8943C9.94734 18.6857 9.97007 18.4131 9.99048 18.0544L10.0481 17.0164L10.051 16.9714L10.0959 16.9685L11.1682 16.9128L12.2327 16.8582L12.9202 16.1921L13.6311 15.5144L13.6458 15.5007H13.6653L14.8538 15.49C17.1156 15.4675 18.8639 14.7826 20.3108 13.3699C21.1426 12.5642 21.6358 11.8541 22.0413 10.907L22.2102 10.4861C22.3436 10.1264 22.4177 9.87874 22.4592 9.56226C22.5009 9.24429 22.51 8.85526 22.51 8.21167V8.21069C22.5158 7.38208 22.4807 6.8078 22.3596 6.28296C22.2386 5.75866 22.0316 5.28035 21.6887 4.64429C21.4527 4.215 21.0419 3.69626 20.5715 3.20972C20.1601 2.78417 19.7051 2.38517 19.2844 2.09351L19.1057 1.97534C17.5078 0.977388 15.5036 0.596226 13.6038 0.921631H13.6028C12.0877 1.1908 10.9195 1.81746 9.65552 3.04175C8.88747 3.7857 8.49596 4.26636 8.24341 4.78882V4.78979L8.05103 5.20483C7.63096 6.18724 7.40845 7.27001 7.40845 8.36987V9.47437Z" fill="#D4AF37" stroke="#D4AF37" stroke-width="0.1"/>
<path d="M15.9763 8.00488C16.4536 8.14243 16.8801 8.06969 17.1863 7.84863C17.4921 7.62771 17.6843 7.25441 17.6843 6.77734C17.6843 6.54687 17.6698 6.40202 17.6238 6.28125C17.578 6.16133 17.4986 6.06061 17.3601 5.9209C17.2687 5.83243 17.1692 5.74956 17.0818 5.68945C17.038 5.65935 16.9982 5.63527 16.9646 5.61914L16.8953 5.59668H16.8904C16.311 5.54056 16.0628 5.56297 15.7703 5.67188H15.7712C15.2843 5.8702 15.0721 6.37298 15.116 6.87305C15.1598 7.37311 15.4588 7.85395 15.9763 8.00488Z" fill="#D4AF37" stroke="#D4AF37" stroke-width="0.1"/>
</svg>
