<svg width="22" height="22" viewBox="0 0 22 22" fill="none" xmlns="http://www.w3.org/2000/svg">
<path d="M11 0C17.0751 0 22 4.92487 22 11C22 17.0751 17.0751 22 11 22C4.92487 22 0 17.0751 0 11C1.28852e-07 4.92487 4.92487 1.28855e-07 11 0ZM16.4932 9.16699C16.4932 9.16699 11.9805 11.6168 11 11.6172C10.1061 11.6172 5.50709 9.16737 5.50684 9.16699L5.5 14.667C5.50018 15.1727 5.9105 15.5828 6.41602 15.583H15.583C16.0896 15.583 16.4998 15.1728 16.5 14.667L16.4932 9.16699ZM6.41602 6.41699C5.91004 6.41721 5.50017 6.84654 5.5 7.37598V7.80371C5.5 7.80371 10.106 10.542 11 10.542C11.9375 10.5416 16.4932 7.85645 16.4932 7.85645L16.5 7.37598C16.4998 6.84641 16.0896 6.41699 15.583 6.41699H6.41602Z" fill="#D4AF37"/>
</svg>
